<?xml version="1.0" encoding="utf-8"?>
<!-- Generator: Adobe Illustrator 24.0.0, SVG Export Plug-In . SVG Version: 6.00 Build 0)  -->
<svg version="1.1" id="Слой_1" xmlns="http://www.w3.org/2000/svg" xmlns:xlink="http://www.w3.org/1999/xlink" x="0px" y="0px"
	 viewBox="0 0 96 96" style="enable-background:new 0 0 96 96;" xml:space="preserve">
<style type="text/css">
	.st0{fill:#FFFFFF;}
	.st1{fill:#FFFFFF;stroke:#000000;stroke-width:3.7307;stroke-miterlimit:10;}
</style>
<path d="M36.7,89.5c-5.5,0-9.9,0.1-13.5-1.5c-2.4-1.1-4.4-2.4-6.4-3.9c-1.6-1.2-4.5-3.6-6.1-6.2c-1-1.6-1.3-3.2-1.7-4.7
	c-3-10.1-1.7-20.9-2.6-30.8C6.2,37.9,6.9,33.4,7.3,29c0.1-0.9,0.2-1.8,0.4-2.8c0.5-2.8,1.4-5.4,2.8-7.6c0.9-1.5,2-2.9,3.3-4.2
	c2-1.9,4.3-3.4,6.8-4.6c4.3-1.9,8.6-2.4,13-2.7l7.7-0.6C46,6.2,51,5.8,56,6c4.3,0.2,8.5,0.5,12.4,0.8c1.7,0.1,3.9,0.3,6.1,1.1
	c3.6,1.2,6.8,3.8,9.2,7.1c1.7,2.5,3.5,4.9,4.3,8.4c1,4.3,0.6,8.9,0.7,12.5c0,1.1,0.1,2.2,0.1,3.3c0.1,2.5,0.2,5.1,0.3,7.6
	c0.2,6.1,0.1,11.1-0.2,15.9c-0.4,5.8-0.2,13.3-5,18.5c-6.6,7.1-17.5,8.8-24.1,8.9l-0.7,0c0,0-1.3,0-2,0l-1.7,0
	c-2.7,0-5.4-0.8-8.2-0.5c-2.4,0.2-4.5-0.3-6.6-0.2C39.4,89.5,38.1,89.5,36.7,89.5z M53.4,13c-3.9,0-7.8,0.3-11.6,0.6l-7.7,0.6
	c-3.8,0.3-7.1,0.8-10.5,2.3c-1.8,0.8-3.3,1.8-4.7,3.1c-0.9,0.9-1.7,1.9-2.3,2.9c-0.9,1.5-1.6,2.7-1.9,4.7c-0.1,0.8-0.2,1.5-0.3,2.3
	c-0.4,4.2-0.7,8.5-0.7,12.8c-0.1,9.4,0.1,19.4,2.9,28.7c0.3,1,0.8,1.7,1.4,2.7c1,1.5,2.4,2.6,3.7,3.6c1.8,1.3,3.4,2.5,5.3,3.4
	c2.7,1.2,5.6,1.4,10.2,1.4c1.3,0,2.5,0,3.6-0.1c2.1-0.1,4.2-0.3,6.3-0.5c3-0.3,5.8-0.5,8.7-0.5c0.5,0,1,0,1.5,0l0.3,0
	c0.6,0,1.3,0,1.9,0l0.7,0c5.4-0.1,12.6-0.4,17.5-5.7c3.4-3.6,3.8-8.3,4.1-12.9c0.3-4.6,0.4-9.4,0.2-15.3c-0.1-2.5-0.2-5-0.3-7.5
	c-0.1-1.1-0.1-2.3-0.1-3.4c-0.1-3.3-0.1-6.9-1-10.6c-0.6-2.7-1.8-4.5-3-6.3c-1.5-2.2-2.8-3.8-5-4.6c-1.5-0.5-3-0.7-4.5-0.8
	c-3.8-0.3-7.9-0.7-12.1-0.9C54.9,13,54.2,13,53.4,13z"/>
<path class="st0" d="M36.7,82.8c-3.8,0-7.5-0.4-10.5-1.8c-1.9-0.9-3.5-2-5.2-3.4c-1.3-1-2.7-2-3.6-3.6c-0.6-1-0.9-2.1-1.2-3
	c-2.7-9.2-3-19.2-2.9-28.7c0.1-4.3,0.3-8.5,0.7-12.8c0.1-0.8,0.2-1.5,0.3-2.3c0.3-2,1-3.8,1.9-5.3c0.6-1,1.4-1.9,2.3-2.8
	c1.4-1.4,3-2.5,4.9-3.3c3.3-1.5,7-1.9,10.8-2.2l7.7-0.6c4.6-0.4,9.3-0.8,14-0.6c4.2,0.1,8.3,0.4,12.1,0.8c1.5,0.1,3,0.2,4.5,0.7
	c2.2,0.8,4.3,2.4,5.8,4.6c1.2,1.8,2.1,4,2.8,6.6c0.9,3.7,1,7.4,1.1,10.8l0,0.3c0,1,0.1,2,0.1,3.1c0.1,2.5,0.2,5,0.3,7.5
	c0.2,5.9,0.1,10.7-0.2,15.3c-0.3,4.6-1.1,9.9-4.5,13.5c-4.9,5.2-12.7,5.9-18.1,6c-0.8,0-1.6,0-2.4,0c-0.7,0-1.3,0-2,0
	c-2.9,0-5.8,0.3-8.6,0.5c-2,0.2-4.1,0.4-6.2,0.5C39.2,82.8,37.9,82.8,36.7,82.8z M53.4,14.6c-3.8,0-7.7,0.3-11.5,0.6l-7.7,0.6
	c-3.8,0.3-7.1,0.7-10.2,2c-1.6,0.7-3.1,1.7-4.3,2.9c-0.8,0.8-1.4,1.6-2,2.4c-0.8,1.3-1.3,2.8-1.6,4.6c-0.1,0.7-0.2,1.4-0.3,2.2
	c-0.4,4.2-0.7,8.4-0.7,12.6c-0.1,9.3,0.1,19.1,2.8,28.1c0.3,0.9,0.5,1.8,1,2.5c0.7,1.2,2,2.1,3.1,3c1.7,1.3,3.2,2.4,4.9,3.1
	c3.7,1.7,8.5,1.7,13.2,1.5c2-0.1,4.1-0.3,6.1-0.5c2.9-0.3,5.8-0.5,8.8-0.5c0.7,0,1.4,0,2.1,0c0.8,0,1.6,0,2.4,0
	c5.5-0.1,12.4-0.7,16.7-5.3c3-3.1,3.7-8,3.9-12.3c0.3-4.5,0.4-9.3,0.2-15.1c-0.1-2.5-0.2-5-0.3-7.5c-0.1-1-0.1-2.1-0.1-3.1l0-0.3
	c0,0,0,0,0,0C80,33,79.8,29.3,79,25.9c-0.6-2.4-1.4-4.4-2.5-6c-1.3-1.9-3-3.2-4.8-3.8c-1.3-0.4-2.7-0.5-4-0.6
	c-3.8-0.3-7.9-0.6-12-0.7C54.9,14.6,54.2,14.6,53.4,14.6z"/>
<path class="st0" d="M52.3,91.1c-2,0-4,0-6-0.1c-1.8-0.1-3.6-0.3-5.4-0.5c-1.8-0.2-3.6-0.4-5.4-0.5l-2-0.1c-3-0.1-6-0.2-9-0.7
	c-1.9-0.3-3.9-0.7-5.7-1.8c-1.3-0.8-2.3-1.8-3.3-2.8l-3.8-3.7c-0.9-0.9-1.9-1.9-2.6-3c-0.8-1.4-1.2-3-1.5-4.3c-1-4.7-1-9.6-1-14.1
	c0.1-2.8-0.2-5.6-0.4-8.4c-0.1-1.6-0.3-3.3-0.4-4.9C5.7,42.1,5.6,38,5.6,33.9c0-4.9,0.1-10.1,2.4-14.6c2.1-4.2,6.1-7.7,11.2-9.8
	c4.8-2,10-2.7,14.4-3.1c1.5-0.1,3-0.3,4.6-0.4c3.2-0.3,6.4-0.6,9.7-0.8c3.3-0.2,6.7,0.1,10,0.3c1.4,0.1,2.7,0.2,4.1,0.3
	c5.6,0.3,11.9,0.6,17.3,3.6c5.4,2.9,9.3,8.3,10.5,14.4c0.5,2.9,0.6,5.9,0.6,8.1l0,0c0,1.2,0,2.3,0,3.5c0,1.1,0,2.3,0,3.4
	c0,2.6,0.1,5.2,0.1,7.8c0.1,5.6,0.3,11.4-0.2,17c-0.5,5-1.5,9.9-3.1,14.6c-0.4,1.1-0.8,2.3-1.6,3.3c-0.8,1.1-1.9,1.9-2.9,2.6
	c-2.5,1.8-5.1,3.7-8.1,4.8c-2.1,0.7-4.3,1.1-6.2,1.3C63,90.7,57.7,91.1,52.3,91.1z M50.3,7c-0.8,0-1.6,0-2.4,0.1
	c-3.2,0.2-6.5,0.5-9.6,0.8c-1.5,0.1-3,0.3-4.6,0.4c-4.3,0.4-9.3,1-13.8,3c-4.7,2-8.3,5.1-10.2,8.9C7.7,24.2,7.5,29,7.6,33.9
	c0,4.1,0.2,8.2,0.4,12.2c0.1,1.6,0.2,3.2,0.4,4.8c0.2,2.8,0.5,5.7,0.4,8.6c-0.1,4.4,0,9.1,0.9,13.6c0.2,1.2,0.6,2.5,1.3,3.7
	c0.6,1,1.5,1.8,2.3,2.7l3.8,3.7c0.9,0.9,1.9,1.8,2.9,2.5c1.5,0.9,3.3,1.3,5,1.6c2.9,0.5,5.9,0.6,8.8,0.7l2,0.1
	c1.9,0.1,3.7,0.3,5.5,0.5c1.7,0.2,3.5,0.4,5.3,0.5c7.2,0.3,14.5,0.1,21.6-0.9c1.8-0.2,3.9-0.5,5.8-1.2c2.7-1,5.2-2.8,7.6-4.5
	c0.9-0.7,1.8-1.3,2.4-2.2c0.6-0.8,0.9-1.8,1.3-2.8c1.5-4.6,2.5-9.3,3-14.2c0.5-5.5,0.4-11.2,0.2-16.8c-0.1-2.6-0.1-5.3-0.1-7.8
	c0-1.1,0-2.3,0-3.4s0-2.3,0-3.5l0,0c0-2.2-0.1-5-0.6-7.8c-1-5.4-4.6-10.4-9.4-13c-5-2.7-11.1-3-16.5-3.3c-1.4-0.1-2.7-0.2-4.1-0.3
	C55.2,7.1,52.7,7,50.3,7z"/>
<path class="st1" d="M69.1,21.8c-0.7-0.6-1.7-0.7-2.5-0.2c-0.6,0.4-0.7,1.5-0.4,2.2c0.6,1.2,2.5,2,3.3,0.7c0.3-0.5,0.3-1,0.2-1.6
	C69.6,22.5,69.4,22.1,69.1,21.8z"/>
<path class="st0" d="M68.8,28.2c-0.1,0-0.2,0-0.3,0c-2.2-0.1-4.5-1.5-5.4-3.3c-1.1-2-0.5-4.6,1.3-5.7c2.1-1.4,5-1.2,6.9,0.4l0,0
	c0.9,0.7,1.5,1.7,1.7,2.8c0.3,1.4,0.1,2.8-0.6,3.9C71.6,27.6,70.4,28.2,68.8,28.2z M67.6,20.3c-0.7,0-1.5,0.2-2.1,0.6
	c-0.9,0.6-1.2,2-0.6,3c0.6,1.2,2.3,2.2,3.7,2.2c0.9,0,1.7-0.3,2.1-1c0.4-0.6,0.6-1.5,0.4-2.4c-0.2-0.7-0.5-1.3-1.1-1.7
	C69.4,20.6,68.5,20.3,67.6,20.3z"/>
<path d="M48.8,67.7c-3.4,0-7,0.4-9.9-1.2c-1.7-0.9-3-1.8-3.9-2.6c-0.4-0.3-1.5-1.3-1.8-1.5c-4.8-3-6.1-10.3-5.9-14.9
	c0.1-2.8,1-5.1,1.7-6.7c0.9-2.3,2.2-5.4,4.8-8c2.9-2.9,6.8-4.7,11.3-5.1c1.8-0.2,3.6-0.1,5.4,0.2c4,0.6,7.7,2,10.6,4.2
	c3.7,2.7,6.2,6.6,7.1,10.8c1.6,7.6-1.3,16.1-7.3,20.7C57.6,66.2,53.3,67.7,48.8,67.7z M47.6,35c-0.5,0-1.4,0.3-1.8,0.3
	c-3,0.3-4.4,0.3-6.2,2.1c-1.7,1.7-2.5,3.9-3.3,5.9c-0.5,1.3-1.6,3-1.7,4.7c-0.1,2.7,1.4,5.6,3.9,7.1c0.6,0.4,0.8,1.4,1.4,1.9
	c0.8,0.7,1.9,0.9,2.9,1.5c4.5,2.4,9.5,2.1,13.4-1c3.9-3,5.6-8,4.5-13c-0.6-2.7-1.6-5-4-6.8c-2.1-1.5-4.4-1.8-7.3-2.2
	C48.6,35.4,48.4,35,47.6,35z"/>
<path class="st0" d="M48.8,61c-2.2,0-4.5-0.5-6.5-1.6c-1-0.5-1.8-1.2-2.5-1.9c-0.6-0.5-1.2-1.1-1.8-1.5c-2.5-1.6-4-5.5-3.9-8.2
	c0.1-1.6,0.7-3.1,1.2-4.5c0.8-2,1.7-4.2,3.3-5.9c1.7-1.8,4.2-2.8,7.1-3.1l0,0c1.3-0.1,2.6-0.1,3.9,0.1c2.9,0.4,5.5,1.4,7.5,3
	c2.4,1.8,4,4.2,4.6,6.8c1.1,5-1,11-4.9,14C54.6,60.1,51.7,61,48.8,61z M45.9,36.4c-1.7,0.2-4.1,0.7-5.9,2.5
	c-1.4,1.4-2.2,3.3-2.9,5.2c-0.5,1.2-1,2.5-1.1,3.8c-0.1,2,1.2,5.3,3,6.4c0.8,0.5,1.5,1.1,2.1,1.7c0.7,0.6,1.4,1.2,2.2,1.7
	c3.8,2.1,9,1.7,12.3-0.9c3.3-2.6,5.1-7.7,4.1-12c-0.5-2.1-1.9-4.2-3.8-5.7c-1.8-1.3-4.1-2.2-6.6-2.6C48.1,36.3,47,36.3,45.9,36.4
	L45.9,36.4z"/>
<path class="st0" d="M47.7,69.2c-3.4,0-6.7-0.7-9.7-2c-5.6-2.5-9.8-7.1-11.1-12.3c-1-4-0.3-8,0.4-11.1c0.6-2.5,1.5-6.1,3.1-8.9
	c1.4-2.4,3.3-4.4,5.5-6c1.4-1,2.9-1.8,4.3-2.3c0,0,0.2-0.1,0.2-0.1l0,0c4.2-1.3,8.7-0.5,12.4,0.2c4.9,0.9,9.9,4.6,12.8,8
	c0.8,0.9,1.3,1.7,1.7,2.5c0.9,1.7,1.1,3.6,1.3,5.4c0.4,5.1,0,9.5-1.3,13.3c-2.1,6.1-6,10.2-11.3,11.9C53.2,68.8,50.4,69.2,47.7,69.2
	z M40.7,27.6l0.1,1c-1.3,0.4-2.5,1.1-3.8,2c-2,1.4-3.6,3.3-4.9,5.4c-1.5,2.5-2.4,5.9-2.9,8.3c-0.6,2.9-1.3,6.6-0.4,10.2
	c1.1,4.6,4.9,8.7,9.9,11c4.9,2.2,10.8,2.4,16.5,0.6c6-1.8,8.8-6.8,10-10.6c1.2-3.6,1.6-7.7,1.2-12.5c-0.1-1.6-0.3-3.3-1.1-4.7
	c-0.3-0.7-0.8-1.3-1.5-2.1c-2.6-3-7.3-6.6-11.6-7.3c-3.7-0.6-7.8-1.4-11.5-0.2l0,0L40.7,27.6z M40.7,27.6L40.7,27.6L40.7,27.6z"/>
</svg>
