<?xml version="1.0" encoding="utf-8"?>
<!-- Generator: Adobe Illustrator 24.0.0, SVG Export Plug-In . SVG Version: 6.00 Build 0)  -->
<svg version="1.1" id="Слой_1" xmlns="http://www.w3.org/2000/svg" xmlns:xlink="http://www.w3.org/1999/xlink" x="0px" y="0px"
	 viewBox="0 0 72.7 73.2" style="enable-background:new 0 0 72.7 73.2;" xml:space="preserve">
<style type="text/css">
	.st0{fill:#FFFFFF;}
	.st1{fill:#FFFFFF;stroke:#FFFFFF;stroke-width:2.91;stroke-miterlimit:10;}
</style>
<path class="st0" d="M25,72c-3.8,0-7.5-0.4-10.5-1.8c-1.9-0.9-3.5-2-5.2-3.4c-1.3-1-2.7-2-3.6-3.6c-0.6-1-0.9-2.1-1.2-3
	C1.8,51,1.5,41,1.6,31.5c0.1-4.3,0.3-8.5,0.7-12.8c0.1-0.8,0.2-1.5,0.3-2.3c0.3-2,1-3.8,1.9-5.3c0.6-1,1.4-1.9,2.3-2.8
	c1.4-1.4,3-2.5,4.9-3.3c3.3-1.5,7-1.9,10.8-2.2l7.7-0.6c4.6-0.4,9.3-0.8,14-0.6c4.2,0.1,8.3,0.4,12.1,0.8c1.5,0.1,3,0.2,4.5,0.7
	c2.2,0.8,4.3,2.4,5.8,4.6c1.2,1.8,2.1,4,2.8,6.6c0.9,3.7,1,7.4,1.1,10.8v0.3c0,1,0.1,2,0.1,3.1c0.1,2.5,0.2,5,0.3,7.5
	c0.2,5.9,0.1,10.7-0.2,15.3c-0.3,4.6-1.1,9.9-4.5,13.5c-4.9,5.2-12.7,5.9-18.1,6c-0.8,0-1.6,0-2.4,0c-0.7,0-1.3,0-2,0
	c-2.9,0-5.8,0.3-8.6,0.5c-2,0.2-4.1,0.4-6.2,0.5C27.5,72,26.2,72,25,72z M41.7,3.8c-3.8,0-7.7,0.3-11.5,0.6L22.5,5
	c-3.8,0.3-7.1,0.7-10.2,2C10.7,7.7,9.2,8.7,8,9.9c-0.8,0.8-1.4,1.6-2,2.4c-0.8,1.3-1.3,2.8-1.6,4.6c-0.1,0.7-0.2,1.4-0.3,2.2
	c-0.4,4.2-0.7,8.4-0.7,12.6C3.3,41,3.5,50.8,6.2,59.8c0.3,0.9,0.5,1.8,1,2.5c0.7,1.2,2,2.1,3.1,3c1.7,1.3,3.2,2.4,4.9,3.1
	c3.7,1.7,8.5,1.7,13.2,1.5c2-0.1,4.1-0.3,6.1-0.5c2.9-0.3,5.8-0.5,8.8-0.5c0.7,0,1.4,0,2.1,0c0.8,0,1.6,0,2.4,0
	c5.5-0.1,12.4-0.7,16.7-5.3c3-3.1,3.7-8,3.9-12.3c0.3-4.5,0.4-9.3,0.2-15.1c-0.1-2.5-0.2-5-0.3-7.5c-0.1-1-0.1-2.1-0.1-3.1v-0.3l0,0
	c0.1-3.1-0.1-6.8-0.9-10.2c-0.6-2.4-1.4-4.4-2.5-6c-1.3-1.9-3-3.2-4.8-3.8c-1.3-0.4-2.7-0.5-4-0.6C52.2,4.4,48.1,4.1,44,4
	C43.2,3.8,42.5,3.8,41.7,3.8z"/>
<path class="st1" d="M57.3,10.7c-0.5-0.6-1.3-0.6-2-0.2c-0.5,0.4-0.5,1.4-0.3,2c0.5,1.1,2,1.8,2.6,0.6c0.2-0.5,0.2-0.9,0.2-1.5
	C57.6,11.3,57.5,11,57.3,10.7z"/>
<path class="st0" d="M37.1,50.2c-2.2,0-4.5-0.5-6.5-1.6c-1-0.5-1.8-1.2-2.5-1.9c-0.6-0.5-1.2-1.1-1.8-1.5c-2.5-1.6-4-5.5-3.9-8.2
	c0.1-1.6,0.7-3.1,1.2-4.5c0.8-2,1.7-4.2,3.3-5.9c1.7-1.8,4.2-2.8,7.1-3.1l0,0c1.3-0.1,2.6-0.1,3.9,0.1c2.9,0.4,5.5,1.4,7.5,3
	c2.4,1.8,4,4.2,4.6,6.8c1.1,5-1,11-4.9,14C42.9,49.3,40,50.2,37.1,50.2z M34.2,25.6c-1.7,0.2-4.1,0.7-5.9,2.5
	c-1.4,1.4-2.2,3.3-2.9,5.2c-0.5,1.2-1,2.5-1.1,3.8c-0.1,2,1.2,5.3,3,6.4c0.8,0.5,1.5,1.1,2.1,1.7c0.7,0.6,1.4,1.2,2.2,1.7
	c3.8,2.1,9,1.7,12.3-0.9c3.3-2.6,5.1-7.7,4.1-12c-0.5-2.1-1.9-4.2-3.8-5.7c-1.8-1.3-4.1-2.2-6.6-2.6C36.4,25.5,35.3,25.5,34.2,25.6
	L34.2,25.6z"/>
</svg>
