<?xml version="1.0" encoding="utf-8"?>
<!-- Generator: Adobe Illustrator 24.0.0, SVG Export Plug-In . SVG Version: 6.00 Build 0)  -->
<svg version="1.1" id="Слой_1" xmlns="http://www.w3.org/2000/svg" xmlns:xlink="http://www.w3.org/1999/xlink" x="0px" y="0px"
	 viewBox="0 0 90 69.5" style="enable-background:new 0 0 90 69.5;" xml:space="preserve">
<style type="text/css">
	.st0{fill:#FFFFFF;stroke:#000000;stroke-width:2;stroke-miterlimit:10;}
</style>
<path class="st0" d="M44.9,6.8c14.4,0,26,1.2,31.6,2.2c3,0.8,5.4,2.8,5.8,5.4c1.2,6.4,2,13.2,2,20.2c-0.2,8.6-1.2,15.6-2,20.6
	c-0.6,3.8-4.6,5-5.8,5.4C69.3,62,57.3,63,45.3,63s-24.2-0.8-31.2-2.4c-3-0.8-5.4-2.8-5.8-5.4c-1.6-5.6-2.2-13-2.2-20.4
	c0-9.2,0.8-16,1.6-20.2c0.6-3.8,4.8-5,5.8-5.4C20.1,7.8,32.3,6.8,44.9,6.8 M44.9,2.8c-13.2,0-25.6,1-32.2,2.4c-4.4,1-8.2,4-9,8.6
	c-0.8,4.8-1.6,12-1.6,21s0.8,16,1.8,21c0.8,4.4,4.6,7.6,9,8.6c7,1.4,19,2.4,32.2,2.4s25.2-1,32.2-2.4c4.4-1,8.2-4,9-8.6
	c0.8-5,1.8-12.2,2-21.2c0-9-1-16.2-2-21.2c-0.8-4.4-4.6-7.6-9-8.6C70.3,3.8,58.1,2.8,44.9,2.8L44.9,2.8z"/>
<path class="st0" d="M38.1,25.5l16,9.2l-16,9.2V25.5 M34.1,18.8v32l28-16L34.1,18.8L34.1,18.8z"/>
</svg>
